<?xml version="1.0" encoding="UTF-8" standalone="no"?>
<svg
   xmlns:dc="http://purl.org/dc/elements/1.1/"
   xmlns:cc="http://creativecommons.org/ns#"
   xmlns:rdf="http://www.w3.org/1999/02/22-rdf-syntax-ns#"
   xmlns:svg="http://www.w3.org/2000/svg"
   xmlns="http://www.w3.org/2000/svg"
   version="1.1"
   viewBox="0 0 719.04 719.04"
   data-name="Layer 1"
   id="Layer_1">
  <metadata
     id="metadata4735">
    <rdf:RDF>
      <cc:Work
         rdf:about="">
        <dc:format>image/svg+xml</dc:format>
        <dc:type
           rdf:resource="http://purl.org/dc/dcmitype/StillImage" />
        <dc:title>NSLB_badge</dc:title>
      </cc:Work>
    </rdf:RDF>
  </metadata>
  <defs
     id="defs4605">
    <style
       id="style4607">.cls-1{fill:#fff;}.cls-2,.cls-3{fill:#3bbedf;}.cls-3{stroke:#fff;stroke-miterlimit:10;stroke-width:4.18px;}.cls-4{fill:#1c75bc;}.cls-5{fill:#bee2d1;}</style>
  </defs>
  <title
     id="title4609">NSLB_badge</title>
  <circle
     id="circle4679"
     r="315.86"
     cy="344.76"
     cx="358.75"
     class="cls-2" />
  <circle
     id="circle4681"
     r="294.93"
     cy="343.99"
     cx="359.52"
     class="cls-3" />
  <path
     id="path4683"
     transform="translate(-1.12 -4.21)"
     d="M405.1,210.64s-31.35,9.68-60.06-6.86-45.7-6.87-56.28,9.67-9.06,58.09,0,92,27,102.71,32.32,133,20.27-1.17,20.94-36.67,2.27-70.42,10.2-82.28c14.45-21.63,38-2.43,37.39,46.89-0.47,41.18-2.72,107.59,11.58,91.86,8.38-9.21,24.39-110.06,33.46-146.76s23.89-83.64,7.08-114.19c-10.29-18.7-52.12-21.28-74.79-4.74,0,0-6,4.74-2.93-3.73S384.24,169.7,406.76,170s35.74,6.15,47.64,18,13.69,50.92-7.27,118.53S422.7,425.52,412.44,453c-7.74,20.77-25.15,22.49-29.65-2.82-5.24-29.49-.79-84.36-5.49-103.56s-15.63-13.81-18.08-7.16-7.93,17.75-9.63,59.09-7.41,66.39-16.1,69.82c-9.25,3.65-19-11.94-23.87-32.51s-20.09-87.46-34.82-122.58-26.27-84.41-11-116.39c16.62-34.69,54.77-24.6,75.35-7.46s33.24,19.36,43.06,19.56S413.22,206.81,405.1,210.64Z"
     class="cls-1" />
  <ellipse
     id="ellipse4685"
     ry="33.4"
     rx="27.91"
     cy="96.85"
     cx="359.06"
     class="cls-4" />
  <path
     id="path4687"
     transform="translate(-1.12 -4.21)"
     d="M325.12,132.81c-31.3-8.12-74.32,13.87-89.9,41-9.16,15.94-11.13,35.07-8,53,1.12,6.49,9.68,41.45,19.36,35.94-2.89-17-11.79-34.63-9.57-52.11,2.27-17.82,11.63-35.3,27.27-44.55,15.94-9.42,33.85-9.27,51.6-11.46,10.85-1.34,29.11-16.64,9.27-21.79h0ZM228.47,232s0,0,0,0h0Z"
     class="cls-4" />
  <path
     id="path4689"
     transform="translate(-1.12 -4.21)"
     d="M395.34,132.81c-19.84,5.15-1.58,20.45,9.27,21.79,17.75,2.19,35.67,2,51.6,11.46,15.65,9.25,25,26.73,27.27,44.55,2.23,17.48-6.67,35.13-9.57,52.11,9.69,5.51,18.25-29.45,19.36-35.94,3.09-17.93,1.12-37.06-8-53-15.58-27.1-58.6-49.09-89.9-41h0ZM492,232.05s0,0,0,0h0Z"
     class="cls-4" />
  <ellipse
     id="ellipse4691"
     transform="translate(-103.36 475.46) rotate(-79.72)"
     ry="23.24"
     rx="30.07"
     cy="301.06"
     cx="236.11"
     class="cls-5" />
  <path
     id="path4693"
     transform="translate(-1.12 -4.21)"
     d="M262.72,353.23c-25.82-19.68-40.51-31.11-47.6,33.55-6.12,55.89-7.55,111.8-42.74,98.32,5,20.49,24.83,7.3,31.08,1.38,14.94-14.17,19.35-38.45,22.39-71.94,2.19-24.11-.06-59.55,12.92-67.11C246.47,342.93,263.25,369.86,262.72,353.23Z"
     class="cls-5" />
  <ellipse
     id="ellipse4695"
     transform="translate(-43.21 78.36) rotate(-9.35)"
     ry="30.07"
     rx="23.24"
     cy="298.7"
     cx="483.95"
     class="cls-5" />
  <path
     id="path4697"
     transform="translate(-1.12 -4.21)"
     d="M456.5,350.43c26.14-19.26,41-30.45,47,34.32,5.22,56,5.73,111.9,41.14,99-5.3,20.4-24.95,6.9-31.09.87-14.7-14.41-18.73-38.75-21.22-72.29-1.8-24.14,1-59.55-11.83-67.31C472.92,340.4,455.7,367.05,456.5,350.43Z"
     class="cls-5" />
  <path
     id="path4699"
     transform="translate(-1.12 -4.21)"
     d="M168.77,506.29h4.09v31.12h-4.09l-16.44-24.7v24.7h-4.09V506.29h4.09L168.77,531v-24.7Z"
     class="cls-1" />
  <path
     id="path4701"
     transform="translate(-1.12 -4.21)"
     d="M181.37,534.31a12.68,12.68,0,0,1-3.39-9.21,12.44,12.44,0,0,1,3.55-9.23,13,13,0,0,1,17.78,0,12.41,12.41,0,0,1,3.55,9.21,12.13,12.13,0,0,1-3.7,9.21,12.64,12.64,0,0,1-9,3.53A11.62,11.62,0,0,1,181.37,534.31Zm8.73,0.13a8.27,8.27,0,0,0,6-2.49,9.22,9.22,0,0,0,2.54-6.89,9.39,9.39,0,0,0-2.42-6.87,8,8,0,0,0-5.91-2.47,7.67,7.67,0,0,0-5.82,2.47,9.63,9.63,0,0,0-2.34,6.89A9.87,9.87,0,0,0,184.4,532,7.37,7.37,0,0,0,190.1,534.45Z"
     class="cls-1" />
  <path
     id="path4703"
     transform="translate(-1.12 -4.21)"
     d="M217.59,514.6a4.25,4.25,0,0,0,.94,2.83,5.59,5.59,0,0,0,2.43,1.66,26.41,26.41,0,0,0,3.3.94q1.82,0.4,3.64.92a16,16,0,0,1,3.3,1.32,6.29,6.29,0,0,1,2.42,2.43,7.82,7.82,0,0,1,.94,4,8.53,8.53,0,0,1-2.78,6.33,10.36,10.36,0,0,1-7.52,2.69,12.68,12.68,0,0,1-7.7-2.18,7,7,0,0,1-3-5.91h4.36a4.87,4.87,0,0,0,1.68,3.41,6.66,6.66,0,0,0,4.47,1.3,6.92,6.92,0,0,0,4.72-1.53,4.61,4.61,0,0,0,1.75-3.57,4.69,4.69,0,0,0-.94-3.14,5.67,5.67,0,0,0-2.42-1.64,24.12,24.12,0,0,0-3.3-.92q-1.82-.38-3.64-0.92a16.06,16.06,0,0,1-3.3-1.37,6.4,6.4,0,0,1-2.42-2.47,8,8,0,0,1-.94-4.06,8,8,0,0,1,2.81-6.35,10.87,10.87,0,0,1,7.32-2.4,11.36,11.36,0,0,1,7.19,2.09,8.11,8.11,0,0,1,3.08,5.77h-4.54a4.59,4.59,0,0,0-1.73-3.14,6.29,6.29,0,0,0-4.18-1.3,6.67,6.67,0,0,0-4.29,1.32A4.67,4.67,0,0,0,217.59,514.6Z"
     class="cls-1" />
  <path
     id="path4705"
     transform="translate(-1.12 -4.21)"
     d="M244.71,512.76v4q2.51-4.4,8-4.4a9.79,9.79,0,0,1,5.12,1.37,8.58,8.58,0,0,1,3.46,4,10.08,10.08,0,0,1,3.66-3.93,9.91,9.91,0,0,1,5.28-1.41,9.42,9.42,0,0,1,6.92,2.72q2.74,2.72,2.74,7.75v14.59h-4V523.49a8,8,0,0,0-1.82-5.66,7.34,7.34,0,0,0-9.92,0,8,8,0,0,0-1.82,5.66v13.92h-4V523.49a8,8,0,0,0-1.8-5.66,6.44,6.44,0,0,0-5-1.93,6.52,6.52,0,0,0-5,1.93,8,8,0,0,0-1.82,5.66v13.92h-4.09V512.76h4.09Z"
     class="cls-1" />
  <path
     id="path4707"
     transform="translate(-1.12 -4.21)"
     d="M290.47,508a2.69,2.69,0,0,1-2,.81,2.61,2.61,0,0,1-2-.81,2.73,2.73,0,0,1-.79-2,2.69,2.69,0,0,1,.81-2,2.77,2.77,0,0,1,3.91,0A2.82,2.82,0,0,1,290.47,508Zm-4,29.41V512.76h4.09v24.65h-4.09Z"
     class="cls-1" />
  <path
     id="path4709"
     transform="translate(-1.12 -4.21)"
     d="M297.25,537.41V504.18h4.09v33.23h-4.09Z"
     class="cls-1" />
  <path
     id="path4711"
     transform="translate(-1.12 -4.21)"
     d="M318.4,537.82a11.35,11.35,0,0,1-8.62-3.5,12.88,12.88,0,0,1-3.32-9.25,12.71,12.71,0,0,1,3.37-9.23,12.8,12.8,0,0,1,17.36-.18,11.49,11.49,0,0,1,3.26,8.42,15.4,15.4,0,0,1-.18,2.42H310.63a8.47,8.47,0,0,0,2.31,5.82,7.38,7.38,0,0,0,5.46,2.13,7.63,7.63,0,0,0,4.24-1.12,6.66,6.66,0,0,0,2.54-3h4.4a11.32,11.32,0,0,1-4,5.34A11.71,11.71,0,0,1,318.4,537.82Zm5.52-20a8.05,8.05,0,0,0-10.87,0,8.36,8.36,0,0,0-2.38,5.73h15.49A7.7,7.7,0,0,0,323.93,517.86Z"
     class="cls-1" />
  <path
     id="path4713"
     transform="translate(-1.12 -4.21)"
     d="M342.83,506.29h4.09v28h10.91v3.14h-15V506.29Z"
     class="cls-1" />
  <path
     id="path4715"
     transform="translate(-1.12 -4.21)"
     d="M372.42,537.82a11.34,11.34,0,0,1-8.62-3.5,12.88,12.88,0,0,1-3.32-9.25,12.71,12.71,0,0,1,3.37-9.23,12.8,12.8,0,0,1,17.36-.18,11.49,11.49,0,0,1,3.26,8.42,15.5,15.5,0,0,1-.18,2.42H364.66a8.47,8.47,0,0,0,2.31,5.82,7.39,7.39,0,0,0,5.46,2.13,7.63,7.63,0,0,0,4.24-1.12,6.66,6.66,0,0,0,2.54-3h4.4a11.32,11.32,0,0,1-4,5.34A11.71,11.71,0,0,1,372.42,537.82Zm5.52-20a8.05,8.05,0,0,0-10.87,0,8.36,8.36,0,0,0-2.38,5.73h15.49A7.7,7.7,0,0,0,377.95,517.86Z"
     class="cls-1" />
  <path
     id="path4717"
     transform="translate(-1.12 -4.21)"
     d="M399.68,512.76v3.32h-5.16v21.33h-4.13V516.08H387.2v-3.32h3.19v-2.07q0-4,2.16-5.88t6.78-1.84v3.32q-2.7,0-3.75,1a4.55,4.55,0,0,0-1.06,3.39v2.07h5.16Z"
     class="cls-1" />
  <path
     id="path4719"
     transform="translate(-1.12 -4.21)"
     d="M412.43,534.09h3.37v3.32h-4.13q-6.42,0-6.42-6.33v-15h-3.19v-3.32h3.19v-6.11h4.13v6.11h6.38v3.32h-6.38v15a3.25,3.25,0,0,0,.67,2.34A3.33,3.33,0,0,0,412.43,534.09Z"
     class="cls-1" />
  <path
     id="path4721"
     transform="translate(-1.12 -4.21)"
     d="M427.61,506.29h11.14q4.76,0,7.36,2.31a7.6,7.6,0,0,1,2.6,5.95q0,5.21-6,6.87a7.81,7.81,0,0,1,6.69,7.77,7.38,7.38,0,0,1-2.76,5.88,11.06,11.06,0,0,1-7.39,2.34H427.61V506.29Zm4.09,3.28v10.24h6.87a6.57,6.57,0,0,0,4.42-1.37,4.66,4.66,0,0,0,1.59-3.73A4.73,4.73,0,0,0,443,511a6.51,6.51,0,0,0-4.42-1.39H431.7Zm0,24.61h7.36a6.8,6.8,0,0,0,4.65-1.48,5.13,5.13,0,0,0,1.68-4.06,5,5,0,0,0-1.82-4.06,7.41,7.41,0,0,0-4.83-1.48H431.7v11.09Z"
     class="cls-1" />
  <path
     id="path4723"
     transform="translate(-1.12 -4.21)"
     d="M465.42,537.82a11.34,11.34,0,0,1-8.62-3.5,12.88,12.88,0,0,1-3.32-9.25,12.71,12.71,0,0,1,3.37-9.23,12.8,12.8,0,0,1,17.36-.18,11.49,11.49,0,0,1,3.26,8.42,15.5,15.5,0,0,1-.18,2.42H457.66a8.47,8.47,0,0,0,2.31,5.82,7.39,7.39,0,0,0,5.46,2.13,7.63,7.63,0,0,0,4.24-1.12,6.66,6.66,0,0,0,2.54-3h4.4a11.32,11.32,0,0,1-4,5.34A11.71,11.71,0,0,1,465.42,537.82Zm5.52-20a8.05,8.05,0,0,0-10.87,0,8.36,8.36,0,0,0-2.38,5.73h15.49A7.7,7.7,0,0,0,470.95,517.86Z"
     class="cls-1" />
  <path
     id="path4725"
     transform="translate(-1.12 -4.21)"
     d="M486.62,504.18v12.57q2.51-4.4,8-4.4a9.31,9.31,0,0,1,6.83,2.72q2.74,2.72,2.74,7.75v14.59h-4V523.49a8,8,0,0,0-1.8-5.66,6.44,6.44,0,0,0-5-1.93,6.52,6.52,0,0,0-5,1.93,8,8,0,0,0-1.82,5.66v13.92h-4.09V504.18h4.09Z"
     class="cls-1" />
  <path
     id="path4727"
     transform="translate(-1.12 -4.21)"
     d="M514.78,508a2.69,2.69,0,0,1-2,.81,2.61,2.61,0,0,1-2-.81,2.73,2.73,0,0,1-.79-2A2.76,2.76,0,1,1,514.78,508Zm-4,29.41V512.76h4.09v24.65h-4.09Z"
     class="cls-1" />
  <path
     id="path4729"
     transform="translate(-1.12 -4.21)"
     d="M525.64,512.76v4q2.51-4.4,8-4.4a9.31,9.31,0,0,1,6.83,2.72q2.74,2.72,2.74,7.75v14.59h-4V523.49a8,8,0,0,0-1.8-5.66,6.44,6.44,0,0,0-5-1.93,6.52,6.52,0,0,0-5,1.93,8,8,0,0,0-1.82,5.66v13.92h-4.09V512.76h4.09Z"
     class="cls-1" />
  <path
     id="path4731"
     transform="translate(-1.12 -4.21)"
     d="M551.51,534.2a13,13,0,0,1-3.37-9.25,12.6,12.6,0,0,1,3.35-9.12,11.19,11.19,0,0,1,8.42-3.48,10.12,10.12,0,0,1,5.5,1.48A9.71,9.71,0,0,1,569,517.7V504.18h4.13v33.23H569v-5a9.79,9.79,0,0,1-3.57,3.93,10,10,0,0,1-5.5,1.51A11,11,0,0,1,551.51,534.2Zm15-2.4a10.37,10.37,0,0,0,0-13.38,7.92,7.92,0,0,0-5.88-2.51,8.06,8.06,0,0,0-5.88,2.42,8.87,8.87,0,0,0-2.45,6.6,9.45,9.45,0,0,0,2.47,6.78A8,8,0,0,0,566.53,531.8Z"
     class="cls-1" />
</svg>
